<svg xmlns="http://www.w3.org/2000/svg" viewBox="0 0 24 24" fill="#f05032">
  <path d="M23.546 10.93L13.067.452c-.604-.603-1.582-.603-2.188 0L8.708 2.627l2.76 2.76c.645-.215 1.379-.07 1.889.441.516.515.658 1.258.428 1.909l2.658 2.66c.645-.215 1.379-.07 1.889.441.708.707.708 1.855 0 2.562-.707.707-1.855.707-2.562 0-.539-.539-.674-1.337-.404-1.996L12.86 8.955v6.525c.176.086.337.203.482.348.707.707.707 1.855 0 2.562-.707.707-1.855.707-2.562 0-.707-.707-.707-1.855 0-2.562.177-.177.378-.314.594-.410V8.743c-.215-.097-.417-.234-.594-.410-.544-.544-.676-1.342-.396-2.009L7.636 3.577.45 10.762c-.603.604-.603 1.582 0 2.188l10.48 10.477c.604.604 1.582.604 2.188 0L23.546 13.12c.603-.603.603-1.582 0-2.188"/>
</svg>
