<svg xmlns="http://www.w3.org/2000/svg" viewBox="0 0 24 24" fill="#000">
  <path d="M11.572 0c-.176 0-.31.001-.358.007a19.76 19.76 0 01-.364.033C7.443.346 4.25 2.185 2.228 5.012a11.875 11.875 0 00-2.119 5.243c-.096.659-.108.854-.108 1.747s.012 1.089.108 1.748c.652 4.506 3.86 8.292 8.209 9.695.779.25 1.6.422 2.534.525.363.04 1.935.04 2.299 0 1.611-.178 2.977-.577 4.323-1.264.207-.106.247-.134.219-.158-.02-.013-.9-.1200-1.95-1.698a308.036 308.036 0 00-1.732-1.584l-.442-.43-.55.797c-.476.69-1.064 1.222-1.727 1.563-.663.34-1.418.517-2.187.513-.77-.004-1.53-.189-2.201-.537-.671-.348-1.26-.881-1.727-1.563l-.55-.797-.442.43a308.036 308.036 0 00-1.732 1.584c-1.05 1.007-1.93 1.685-1.95 1.698-.028.024.012.052.219.158 1.346.687 2.712 1.086 4.323 1.264.364.04 1.936.04 2.299 0 .934-.103 1.755-.275 2.534-.525 4.349-1.403 7.557-5.189 8.209-9.695.096-.659.108-.854.108-1.748s-.012-1.088-.108-1.747C19.299 4.334 16.09.548 11.572 0z"/>
  <path d="M15.005 7.552c-.44 0-.8.357-.8.797s.36.797.8.797.8-.357.8-.797-.36-.797-.8-.797zm-6 0c-.44 0-.8.357-.8.797s.36.797.8.797.8-.357.8-.797-.36-.797-.8-.797z" fill="#61DAFB"/>
</svg>
